<svg xmlns="http://www.w3.org/2000/svg" width="0" height="0" style="display: none">

	<symbol id="logo" width="91" height="26" viewBox="0 0 91 26" fill="none">
		<path
			d="M9.92002 26L3.03202 18.368V26H0.848022V9.272H3.03202V17.024L9.94402 9.272H12.704L5.12002 17.648L12.776 26H9.92002Z"
			fill="#71744F" />
		<path d="M30.5992 9.272V26H28.4152V9.272H30.5992Z" fill="#71744F" />
		<path d="M60.6735 26H58.4895L49.7055 12.68V26H47.5215V9.248H49.7055L58.4895 22.544V9.248H60.6735V26Z"
			fill="#71744F" />
		<path d="M90.7485 26H88.5645L79.7805 12.68V26H77.5965V9.248H79.7805L88.5645 22.544V9.248H90.7485V26Z"
			fill="#71744F" />
		<path d="M1.00002 0H14V2H1.00002V0Z" fill="#71744F" />
	</symbol>



	<symbol xmlns="http://www.w3.org/2000/svg" id="user" width="32" height="32" viewBox="0 0 32 32" fill="none">
		<path
			d="M16 2.41024C12.8665 2.41024 10.3175 5.06112 10.3175 8.32C10.3175 11.5789 12.8677 14.231 16 14.231C19.1323 14.231 21.6825 11.5802 21.6825 8.32C21.6825 5.06112 19.1323 2.41024 16 2.41024ZM16 16.64C11.5889 16.64 8 12.9075 8 8.32C8 3.73248 11.5889 0 16 0C20.4111 0 24 3.73248 24 8.32C24 12.9075 20.4111 16.64 16 16.64Z"
			fill="black" />
		<path
			d="M32 32H29.5385V30.1709C29.536 29.8253 29.3945 21.6371 20.9231 21.6371H11.0769C2.69292 21.6371 2.46769 29.8406 2.46154 30.1888V31.9987H0V30.1696C0.0603077 26.3629 2.45169 19.1987 11.0769 19.1987H20.9231C29.6849 19.1987 32 26.3757 32 30.1696V32Z"
			fill="black" />
	</symbol>


	<symbol xmlns="http://www.w3.org/2000/svg" id="search" width="32" height="32" viewBox="0 0 32 32" fill="none">
		<path d="M18.8774 20.2056L29.8673 32L31.9999 30.3883L21.01 18.594L18.8774 20.2056Z" fill="black" />
		<path
			d="M12.6799 2.79818C7.40131 2.79818 3.10796 6.87177 3.10796 11.8794C3.10796 16.887 7.40131 20.9606 12.6799 20.9606C17.9585 20.9606 22.2519 16.887 22.2519 11.8794C22.2519 6.87177 17.9585 2.79818 12.6799 2.79818ZM12.6799 23.7613C5.68735 23.7613 0 18.4317 0 11.8807C0 5.32968 5.68876 0 12.6799 0C19.6725 0 25.3612 5.32968 25.3612 11.8807C25.3612 18.4317 19.6725 23.7613 12.6799 23.7613Z"
			fill="black" />
	</symbol>



	<symbol xmlns="http://www.w3.org/2000/svg" width="32" id="cart" height="32" viewBox="0 0 32 32" fill="none">
		<path
			d="M1.45896 7.62555L0 32H32L30.541 7.62555H1.45896ZM28.1825 10.1885L29.3345 29.437H2.66548L3.81748 10.1885H28.1825Z"
			fill="black" />
		<path
			d="M21.5917 7.78886C21.5917 4.89439 19.3019 2.53982 16.4871 2.53982C13.6723 2.53982 11.3825 4.89439 11.3825 7.78886H8.91262C8.91262 3.49408 12.3105 0 16.4871 0C20.6637 0 24.0617 3.49408 24.0617 7.78886H21.5917Z"
			fill="black" />
	</symbol>



	<symbol xmlns="http://www.w3.org/2000/svg" id="facebook" width="26" height="26" viewBox="0 0 26 26" fill="none">
		<path
			d="M20.9986 2.00091V6.03544H17.119C16.3608 6.03544 15.5808 6.56732 15.5808 6.9558V9.60253H20.9795C20.7654 11.6393 20.3168 13.4946 20.3168 13.4946H15.563V25H8.46783V13.4946H5V9.61523H8.46783V6.44933C8.46783 5.87932 8.29327 2 15.7376 2H21L20.9986 2.00091Z"
			fill="black" />
	</symbol>





	<symbol xmlns="http://www.w3.org/2000/svg" width="26" id="pinterest" height="26" viewBox="0 0 26 26" fill="none">
		<path
			d="M13.0009 2C6.92443 2 2 6.92371 2 12.9995C2 17.5048 4.70862 21.3712 8.58512 23.0748C8.55351 22.3067 8.57768 21.3833 8.77574 20.5483C8.98681 19.6565 10.191 14.5552 10.191 14.5552C10.191 14.5552 9.83948 13.8522 9.83948 12.8136C9.83948 11.1835 10.7842 9.9672 11.9614 9.9672C12.9619 9.9672 13.4435 10.7167 13.4435 11.6177C13.4435 12.6257 12.8029 14.1265 12.4728 15.5223C12.1975 16.6893 13.0576 17.6415 14.2088 17.6415C16.2935 17.6415 17.6957 14.9644 17.6957 11.7916C17.6957 9.38138 16.0731 7.57741 13.119 7.57741C9.78276 7.57741 7.7027 10.0648 7.7027 12.8433C7.7027 13.8029 7.98631 14.479 8.42984 15.0025C8.63347 15.2433 8.65951 15.3391 8.58884 15.6162C8.53398 15.8171 8.41403 16.3062 8.36382 16.4977C8.29036 16.7776 8.06441 16.8762 7.81336 16.7748C6.2754 16.1472 5.55943 14.4632 5.55943 12.5699C5.55943 9.44554 8.19459 5.69906 13.4221 5.69906C17.6232 5.69906 20.3857 8.73883 20.3857 12.0008C20.3857 16.3164 17.9858 19.5412 14.4505 19.5412C13.2631 19.5412 12.1464 18.8978 11.7642 18.1687C11.7642 18.1687 11.1245 20.7026 10.9897 21.1927C10.7572 22.0398 10.2997 22.8888 9.88318 23.5499C10.8725 23.841 11.9177 24 13.0019 24C19.0765 24 24 19.0754 24 13.0005C24 6.92371 19.0765 2.00093 13.0019 2.00093L13.0009 2Z"
			fill="black" />
	</symbol>



	<symbol xmlns="http://www.w3.org/2000/svg" width="26" height="26" viewBox="0 0 26 26" fill="none" id="instagram">
		<path
			d="M13 2C10.0126 2 9.63715 2.01307 8.46422 2.0663C7.29408 2.1186 6.49469 2.30536 5.79429 2.57804C5.07055 2.85819 4.457 3.23452 3.84625 3.84617C3.23364 4.45876 2.85822 5.07229 2.5762 5.79413C2.30444 6.4945 2.1186 7.29292 2.0663 8.46394C2.01214 9.63683 2 10.0132 2 12.9995C2 15.9878 2.01307 16.3622 2.0663 17.5351C2.1186 18.7052 2.30444 19.5064 2.5762 20.2049C2.85822 20.9286 3.23364 21.5422 3.84625 22.1529C4.457 22.7655 5.07055 23.1409 5.79429 23.4229C6.49469 23.6946 7.29315 23.8805 8.46422 23.9346C9.63715 23.9869 10.0135 24 13 24C15.9865 24 16.3628 23.9869 17.5358 23.9346C18.7059 23.8805 19.5053 23.6956 20.2057 23.4229C20.9295 23.1409 21.543 22.7655 22.1537 22.1529C22.7664 21.5422 23.1418 20.9286 23.4238 20.2049C23.6956 19.5064 23.8814 18.7061 23.9337 17.5351C23.9879 16.3622 24 15.9878 24 12.9995C24 10.0122 23.9869 9.63683 23.9337 8.46394C23.8814 7.29386 23.6956 6.4945 23.4238 5.79413C23.1418 5.07135 22.7664 4.45783 22.1537 3.84617C21.543 3.23358 20.9295 2.85819 20.2057 2.57804C19.5053 2.30629 18.7069 2.1186 17.5358 2.0663C16.3628 2.01214 15.9865 2 13 2ZM13 3.98251C15.9379 3.98251 16.2844 3.99372 17.4452 4.04601C18.5182 4.0955 19.1 4.27387 19.4885 4.42421C20.0012 4.62405 20.3673 4.86218 20.7529 5.24785C21.1386 5.63352 21.3768 5.99864 21.5766 6.51318C21.727 6.89978 21.9072 7.48249 21.9548 8.55546C22.009 9.7162 22.0183 10.0636 22.0183 13.0005C22.0183 15.9373 22.0081 16.2866 21.9548 17.4455C21.9063 18.5184 21.727 19.1002 21.5766 19.4887C21.3768 20.0014 21.1386 20.3684 20.7529 20.7531C20.3673 21.1388 20.0021 21.3769 19.4885 21.5767C19.1 21.7271 18.5182 21.9073 17.4452 21.9549C16.2844 22.0091 15.937 22.0203 13 22.0203C10.063 22.0203 9.71373 22.0091 8.5548 21.9549C7.48179 21.9064 6.89999 21.7271 6.5115 21.5767C5.99881 21.3769 5.63274 21.1388 5.24705 20.7531C4.86136 20.3693 4.62323 20.0023 4.42338 19.4887C4.27303 19.1002 4.09279 18.5184 4.04517 17.4455C3.991 16.2866 3.98166 15.9373 3.98166 13.0005C3.98166 10.0636 3.99193 9.7162 4.04517 8.55546C4.09373 7.48249 4.27303 6.90072 4.42338 6.51318C4.62323 5.99864 4.86136 5.63352 5.24705 5.24785C5.63274 4.86218 5.99788 4.62405 6.5115 4.42421C6.89999 4.27387 7.48179 4.0955 8.5548 4.04601C9.7156 3.99372 10.063 3.98251 13 3.98251Z"
			fill="black" />
		<path
			d="M13 16.6676C10.9754 16.6676 9.33271 15.025 9.33271 13.0005C9.33271 10.9759 10.9754 9.33427 13 9.33427C15.0246 9.33427 16.6673 10.975 16.6673 13.0005C16.6673 15.0259 15.0246 16.6676 13 16.6676ZM13 7.35176C9.87996 7.35176 7.35198 9.88149 7.35198 12.9995C7.35198 16.1194 9.87996 18.6492 13 18.6492C16.12 18.6492 18.648 16.1194 18.648 12.9995C18.648 9.88055 16.12 7.35176 13 7.35176Z"
			fill="black" />
		<path
			d="M20.1926 7.12857C20.1926 7.85695 19.6015 8.449 18.8721 8.449C18.1437 8.449 17.5526 7.85695 17.5526 7.12857C17.5526 6.40019 18.1437 5.80814 18.8721 5.80814C19.6015 5.80814 20.1926 6.40019 20.1926 7.12857Z"
			fill="black" />
	</symbol>


	<symbol xmlns="http://www.w3.org/2000/svg" id="arrow-down" width="10" height="8" viewBox="0 0 10 8" fill="none">
		<path d="M9.00059 0L4.99824 5.3336L1 0.00559998L0 1.3384L4.99882 8L10 1.3336L9.00059 0Z" fill="black" />
	</symbol>

</svg>